<?xml version="1.0"?>
<svg width="16" height="16" xmlns="http://www.w3.org/2000/svg" xmlns:svg="http://www.w3.org/2000/svg" class="bi bi-ui-checks-grid">
 <g class="layer">
  <title>Layer 1</title>
  <path d="m2,10l3,0a1,1 0 0 1 1,1l0,3a1,1 0 0 1 -1,1l-3,0a1,1 0 0 1 -1,-1l0,-3a1,1 0 0 1 1,-1m9,-9l3,0a1,1 0 0 1 1,1l0,3a1,1 0 0 1 -1,1l-3,0a1,1 0 0 1 -1,-1l0,-3a1,1 0 0 1 1,-1m0,9a1,1 0 0 0 -1,1l0,3a1,1 0 0 0 1,1l3,0a1,1 0 0 0 1,-1l0,-3a1,1 0 0 0 -1,-1l-3,0zm0,-10a2,2 0 0 0 -2,2l0,3a2,2 0 0 0 2,2l3,0a2,2 0 0 0 2,-2l0,-3a2,2 0 0 0 -2,-2l-3,0zm-9,9a2,2 0 0 0 -2,2l0,3a2,2 0 0 0 2,2l3,0a2,2 0 0 0 2,-2l0,-3a2,2 0 0 0 -2,-2l-3,0zm7,2a2,2 0 0 1 2,-2l3,0a2,2 0 0 1 2,2l0,3a2,2 0 0 1 -2,2l-3,0a2,2 0 0 1 -2,-2l0,-3zm-9,-9a2,2 0 0 1 2,-2l3,0a2,2 0 0 1 2,2l0,3a2,2 0 0 1 -2,2l-3,0a2,2 0 0 1 -2,-2l0,-3zm5.35,0.85a0.5,0.5 0 1 0 -0.7,-0.7l-1.65,1.64l-0.65,-0.64a0.5,0.5 0 1 0 -0.7,0.7l1,1a0.5,0.5 0 0 0 0.7,0l2,-2z" fill="#106cfc" id="svg_1"/>
 </g>
</svg>